<svg width="48" height="48" viewBox="0 0 48 48" fill="none" xmlns="http://www.w3.org/2000/svg">
<circle cx="24" cy="24" r="24" fill="#FFD0A0"/>
<path d="M24.0004 20.791C22.2307 20.791 20.791 22.2308 20.791 24.0004C20.791 25.77 22.2308 27.2098 24.0004 27.2098C25.77 27.2098 27.2098 25.77 27.2098 24.0004C27.2098 22.2308 25.7701 20.791 24.0004 20.791ZM24.0004 25.6863C23.0707 25.6863 22.3145 24.93 22.3145 24.0004C22.3145 23.0708 23.0708 22.3145 24.0004 22.3145C24.93 22.3145 25.6863 23.0708 25.6863 24.0004C25.6863 24.93 24.93 25.6863 24.0004 25.6863Z" fill="#161722"/>
<path d="M18.1956 18.1964L17.1183 17.1191C15.2775 18.96 14.2637 21.404 14.2637 24.0009C14.2637 26.5978 15.2775 29.0418 17.1184 30.8826L18.1956 29.8054C16.6424 28.2523 15.7871 26.1909 15.7871 24.0009C15.7871 21.811 16.6424 19.7495 18.1956 18.1964Z" fill="#161722"/>
<path d="M15.8889 15.8897L14.8117 14.8125C12.3537 17.2705 11 20.5336 11 24.0008C11 27.468 12.3537 30.7312 14.8117 33.1891L15.8889 32.1119C13.7187 29.9417 12.5234 27.0611 12.5234 24.0008C12.5234 20.9405 13.7187 18.06 15.8889 15.8897Z" fill="#161722"/>
<path d="M33.1885 14.8125L32.1113 15.8897C34.2816 18.06 35.4768 20.9405 35.4768 24.0008C35.4768 27.0611 34.2816 29.9417 32.1114 32.1119L33.1886 33.1892C35.6466 30.7312 37.0002 27.468 37.0002 24.0008C37.0002 20.5336 35.6466 17.2705 33.1885 14.8125Z" fill="#161722"/>
<path d="M30.882 17.1191L29.8047 18.1964C31.3579 19.7495 32.2132 21.811 32.2132 24.0009C32.2132 26.1909 31.3578 28.2523 29.8047 29.8054L30.8819 30.8826C32.7228 29.0418 33.7366 26.5978 33.7366 24.0009C33.7366 21.404 32.7228 18.96 30.882 17.1191Z" fill="#161722"/>
<path d="M28.5753 19.4258L27.4981 20.503C28.4341 21.4391 28.9496 22.6813 28.9496 24.0009C28.9496 25.3205 28.4341 26.5628 27.498 27.4988L28.5753 28.5761C29.7991 27.3522 30.4731 25.7274 30.4731 24.0009C30.4731 22.2744 29.7991 20.6496 28.5753 19.4258Z" fill="#161722"/>
<path d="M20.5024 20.503L19.4251 19.4258C18.2013 20.6496 17.5273 22.2744 17.5273 24.0009C17.5273 25.7274 18.2013 27.3523 19.4251 28.5761L20.5024 27.4988C19.5663 26.5627 19.0508 25.3205 19.0508 24.0009C19.0508 22.6813 19.5663 21.4391 20.5024 20.503Z" fill="#161722"/>
</svg>
