<svg width="180" height="58" viewBox="0 0 180 58" fill="none" xmlns="http://www.w3.org/2000/svg">
<g clip-path="url(#clip0_23_600)">
<path d="M150.303 47.8579C150.303 49.4204 150.404 50.7056 150.605 51.7137C150.807 52.6714 151.185 53.4274 151.74 53.9819C152.344 54.5363 153.176 54.9395 154.235 55.1915C155.293 55.3931 156.679 55.5191 158.393 55.5696V57.1573H134.199V55.5696C135.863 55.4183 137.148 55.2167 138.055 54.9647C139.013 54.7127 139.744 54.2843 140.248 53.6794C140.752 53.0746 141.054 52.2429 141.155 51.1845C141.306 50.0756 141.382 48.6139 141.382 46.7994V9.4506C141.382 7.8881 141.306 6.65323 141.155 5.74597C141.004 4.78831 140.676 4.05746 140.172 3.55343C139.668 2.99899 138.937 2.59577 137.979 2.34375C137.022 2.09173 135.762 1.89012 134.199 1.73891V0H156.956C161.241 0 165.096 0.604839 168.524 1.81452C172.002 3.02419 174.623 4.6119 176.387 6.57762C178.554 9.14818 179.638 12.1724 179.638 15.6502C179.638 18.5232 178.882 21.1946 177.37 23.6643C175.908 26.0837 173.892 27.999 171.321 29.4103C169.456 30.4183 167.314 31.1492 164.895 31.6028C162.526 32.0564 159.628 32.2833 156.2 32.2833C155.091 32.2833 154.108 32.2833 153.252 32.2833C152.445 32.2329 151.462 32.1825 150.303 32.1321V47.8579ZM150.303 28.5786C151.311 28.6794 152.143 28.755 152.798 28.8054C153.504 28.8558 154.285 28.881 155.142 28.881C165.172 28.881 170.187 24.6472 170.187 16.1794C170.187 11.6935 168.801 8.41734 166.029 6.35081C163.307 4.28427 158.998 3.25101 153.1 3.25101C151.941 3.25101 151.185 3.45262 150.832 3.85585C150.479 4.20867 150.303 4.98992 150.303 6.1996V28.5786Z" fill="white"/>
<path d="M102.293 47.8579C102.293 49.4204 102.394 50.7056 102.596 51.7137C102.797 52.6714 103.175 53.4274 103.73 53.9819C104.335 54.5363 105.166 54.9395 106.225 55.1915C107.283 55.3931 108.669 55.5191 110.383 55.5696V57.1573H86.1895V55.5696C87.8528 55.4183 89.138 55.2167 90.0453 54.9647C91.003 54.7127 91.7338 54.2843 92.2378 53.6794C92.7419 53.0746 93.0443 52.2429 93.1451 51.1845C93.2963 50.0756 93.3719 48.6139 93.3719 46.7994V9.4506C93.3719 7.8881 93.2963 6.65323 93.1451 5.74597C92.9939 4.78831 92.6663 4.05746 92.1622 3.55343C91.6582 2.99899 90.9274 2.59577 89.9697 2.34375C89.012 2.09173 87.752 1.89012 86.1895 1.73891V0H108.947C113.231 0 117.087 0.604839 120.514 1.81452C123.992 3.02419 126.613 4.6119 128.377 6.57762C130.544 9.14818 131.628 12.1724 131.628 15.6502C131.628 18.5232 130.872 21.1946 129.36 23.6643C127.898 26.0837 125.882 27.999 123.311 29.4103C121.447 30.4183 119.304 31.1492 116.885 31.6028C114.516 32.0564 111.618 32.2833 108.19 32.2833C107.082 32.2833 106.099 32.2833 105.242 32.2833C104.435 32.2329 103.453 32.1825 102.293 32.1321V47.8579ZM102.293 28.5786C103.301 28.6794 104.133 28.755 104.788 28.8054C105.494 28.8558 106.275 28.881 107.132 28.881C117.162 28.881 122.177 24.6472 122.177 16.1794C122.177 11.6935 120.791 8.41734 118.019 6.35081C115.297 4.28427 110.988 3.25101 105.091 3.25101C103.931 3.25101 103.175 3.45262 102.823 3.85585C102.47 4.20867 102.293 4.98992 102.293 6.1996V28.5786Z" fill="white"/>
<path d="M52.924 0C60.4341 0 66.0793 1.23488 69.8595 3.70464C73.6397 6.1744 75.5299 9.82863 75.5299 14.6673C75.5299 16.4315 75.2274 18.0948 74.6226 19.6573C74.0178 21.1694 73.1609 22.4042 72.052 23.3619C71.4976 23.8155 70.9684 24.2188 70.4643 24.5716C69.9603 24.9244 69.3807 25.252 68.7254 25.5544C68.1206 25.8065 67.3897 26.0585 66.5329 26.3105C65.7264 26.5625 64.7688 26.8397 63.6599 27.1421C65.0712 27.4446 66.2809 27.747 67.2889 28.0494C68.3474 28.3518 69.2799 28.7046 70.0863 29.1079C70.8928 29.4607 71.6236 29.8639 72.2789 30.3175C72.9341 30.7712 73.5893 31.3004 74.2446 31.9052C77.0672 34.4254 78.4785 37.6764 78.4785 41.6583C78.4785 44.0776 77.9996 46.245 77.042 48.1603C76.0843 50.0756 74.6982 51.7137 72.8837 53.0746C71.0692 54.3851 68.8766 55.3931 66.3061 56.0988C63.7355 56.8044 60.8373 57.1573 57.6115 57.1573H28.7305V55.5696C30.4946 55.5191 31.9059 55.3931 32.9643 55.1915C34.0732 54.9395 34.9301 54.5363 35.5349 53.9819C36.1397 53.4274 36.543 52.6714 36.7446 51.7137C36.9462 50.7056 37.047 49.4204 37.047 47.8579V9.4506C37.047 7.8377 36.9462 6.55242 36.7446 5.59476C36.5934 4.6371 36.2153 3.88105 35.6105 3.32661C35.0057 2.77218 34.1488 2.39415 33.0399 2.19254C31.9815 1.99093 30.545 1.83972 28.7305 1.73891V0H52.924ZM45.7416 50.4284C45.7416 51.8397 46.1196 52.7974 46.8756 53.3014C47.6317 53.755 49.0178 53.9819 51.0339 53.9819C52.546 53.9819 53.8817 53.9566 55.041 53.9062C56.2506 53.8054 57.3343 53.6794 58.292 53.5282C59.3 53.3266 60.2073 53.0746 61.0137 52.7722C61.8202 52.4698 62.5762 52.1169 63.2819 51.7137C66.8101 49.6976 68.5742 46.371 68.5742 41.7339C68.5742 36.2903 66.0793 32.6109 61.0893 30.6956C60.2829 30.3931 59.4008 30.1411 58.4432 29.9395C57.5359 29.7379 56.4774 29.5867 55.2678 29.4859C54.1085 29.3347 52.7476 29.2339 51.1851 29.1835C49.6226 29.0827 47.8081 29.0323 45.7416 29.0323V50.4284ZM54.0581 25.5544C58.1408 25.5544 61.2658 24.6724 63.4331 22.9083C65.6508 21.0938 66.7597 18.4728 66.7597 15.0454C66.7597 11.1139 65.4744 8.16532 62.9039 6.1996C60.3333 4.23387 56.5278 3.25101 51.4875 3.25101H47.7073C46.3968 3.25101 45.7416 4.10786 45.7416 5.82157V25.5544H54.0581Z" fill="white"/>
<path d="M8.39214 9.4506C8.39214 7.8377 8.29133 6.55242 8.08972 5.59476C7.93851 4.6371 7.56048 3.88105 6.95565 3.32661C6.35081 2.77218 5.49395 2.39415 4.38508 2.19254C3.27621 1.99093 1.81452 1.83972 0 1.73891V0H25.63V1.73891C23.8155 1.78931 22.3538 1.94052 21.245 2.19254C20.1361 2.39415 19.2792 2.77218 18.6744 3.32661C18.0696 3.88105 17.6663 4.6623 17.4647 5.67036C17.2631 6.62802 17.1623 7.8881 17.1623 9.4506V47.8579C17.1623 49.4204 17.2631 50.7056 17.4647 51.7137C17.7167 52.6714 18.1452 53.4274 18.75 53.9819C19.3548 54.5363 20.2117 54.9395 21.3206 55.1915C22.4294 55.3931 23.8659 55.5191 25.63 55.5696V57.1573H0V55.5696C1.81452 55.5191 3.27621 55.3931 4.38508 55.1915C5.49395 54.9395 6.3256 54.5363 6.88004 53.9819C7.48488 53.4274 7.88811 52.6714 8.08972 51.7137C8.29133 50.756 8.39214 49.4708 8.39214 47.8579V9.4506Z" fill="white"/>
</g>
<defs>
<clipPath id="clip0_23_600">
<rect width="180" height="57.6" fill="white"/>
</clipPath>
</defs>
</svg>
